<svg xmlns="http://www.w3.org/2000/svg" width="26.487" height="38" viewBox="0 0 26.487 38">
  <path id="Path_51094" data-name="Path 51094" d="M5.347,6.815V2.222A1.723,1.723,0,0,1,7.07.5H8.936a1.723,1.723,0,0,1,1.722,1.722V6.815A1.722,1.722,0,0,1,8.936,8.537H8v2.425a3.851,3.851,0,0,1,3.518,2.994c1.408,4.428,6.035,15.289,6.035,15.289a37.448,37.448,0,0,0,10.259-.2c3.673-.727,5.33,3.117,2.814,6.844A4.916,4.916,0,0,1,25.8,38.5H16.349a5.483,5.483,0,0,1-5.43-3.823C9.178,28.143,7.5,21.756,5.69,13.956a2.519,2.519,0,0,1,.232-1.911V8.089A1.713,1.713,0,0,1,5.347,6.815Z" transform="translate(-5.347 -0.5)"/>
</svg>
